<svg width="64" height="64" viewBox="0 0 64 64" xmlns="http://www.w3.org/2000/svg">
  <!-- Корпус телефону -->
  <rect x="20" y="8" width="24" height="48" rx="4" fill="#9b59b6" stroke="#333" stroke-width="2"/>
  <!-- Екран -->
  <rect x="22" y="14" width="20" height="36" rx="2" fill="#ffffff"/>
  <!-- Іконки на екрані (сітка) -->
  <rect x="24" y="16" width="5" height="5" rx="1" fill="#ff6b9d"/>
  <rect x="31" y="16" width="5" height="5" rx="1" fill="#4ecdc4"/>
  <rect x="38" y="16" width="5" height="5" rx="1" fill="#ffd93d"/>
  <rect x="24" y="23" width="5" height="5" rx="1" fill="#a8e6cf"/>
  <rect x="31" y="23" width="5" height="5" rx="1" fill="#ff6b9d"/>
  <rect x="38" y="23" width="5" height="5" rx="1" fill="#4ecdc4"/>
  <rect x="24" y="30" width="5" height="5" rx="1" fill="#ffd93d"/>
  <rect x="31" y="30" width="5" height="5" rx="1" fill="#a8e6cf"/>
  <rect x="38" y="30" width="5" height="5" rx="1" fill="#ff6b9d"/>
  <!-- Динамік -->
  <ellipse cx="32" cy="12" rx="3" ry="1.5" fill="#333"/>
  <!-- Кнопка Home -->
  <ellipse cx="32" cy="52" rx="2" ry="2" fill="#333"/>
</svg>

